<svg xmlns="http://www.w3.org/2000/svg" xmlns:xlink="http://www.w3.org/1999/xlink" width="1122.52" height="582.047" viewBox="0 0 297 154" xmlns:v="https://vecta.io/nano"><style><![CDATA[.B{stroke:#a1a1a1}.C{stroke-linejoin:round}.D{fill:#fff}.E{stroke-width:.794}.F{stroke-width:.265}.G{fill:#f19c79}.H{fill:#d4e09b}.I{stroke-width:.529}.J{stroke-width:.252}]]></style><g class="B"><path d="M115.558.438h65.883v8.034h-65.883z" fill="#cbdfbd" paint-order="stroke markers fill" class="C E"/><g fill="none" class="I"><path d="M117.73 10.411l-60.879.191v36.292m121.915-36.139l60.879.191v36.292" stroke-dasharray="3.175, 0.529167"/><path d="M148.5 19.542v28.566m0 18.673v25.147M38.801 106.623l-1.259-.091v-14.5h222.201v14.792"/></g><path d="M115.59 8.779h65.82v12.465h-65.82z" paint-order="stroke markers fill" class="C D F"/></g><path d="M140.983 2.555l-1.743 1.979-.064-.063-.952 1.079-.121-.739 1.956-2.256zm-2.487 0v3.809h-.796V2.555zm.964 1.316l1.57 2.493h-.912l-1.27-2.049zm2.158 2.493V2.555h2.857v.641h-2.06v.946h1.622v.612h-1.622v.97h2.141v.641zm5.252-3.809q.439 0 .75.15.312.144.479.421.173.271.173.658 0 .387-.173.664-.167.271-.479.421-.312.144-.75.144h-.802v1.35h-.796V2.555zm-.121 1.829q.358 0 .537-.15.179-.156.179-.45 0-.3-.179-.45-.179-.15-.537-.15h-.681v1.2z"/><use xlink:href="#B"/><path d="M153.322 5.724h2.008v.641h-2.805V2.555h.796z"/><use xlink:href="#B" x="7.34"/><use xlink:href="#C"/><use xlink:href="#D"/><use xlink:href="#E"/><use xlink:href="#C" x="10.892"/><use xlink:href="#D" x="10.892"/><use xlink:href="#F"/><path d="M145.428 14.501q-.475 0-.823-.207-.343-.212-.535-.596-.187-.384-.187-.914 0-.53.197-.914.202-.384.561-.591.359-.212.823-.212.495 0 .803.187.313.187.505.576l-.369.202q-.111-.288-.353-.434-.237-.151-.586-.151-.338 0-.601.162-.258.157-.409.46-.146.298-.146.717 0 .419.126.722.131.298.384.46.258.157.626.157.207 0 .384-.05.182-.056.313-.162.136-.106.212-.268.076-.162.076-.379v-.116h-1.06v-.379h1.429v1.682h-.318l-.02-.621.086.015q-.131.313-.414.485-.283.172-.702.172z"/><use xlink:href="#G"/><path d="M155.381 11.118v.379h-1.161v2.954h-.404v-2.954h-1.161v-.379z"/><use xlink:href="#H"/><path d="M161.945 11.118l-1.192 2.03v1.303h-.404v-1.303l-1.192-2.03h.48l.646 1.141.268.475.268-.475.646-1.141z"/><use xlink:href="#H" x="6.463"/><use xlink:href="#I"/><path d="M170.62 11.118v3.333h-.384v-2.096l.046-.879h-.005l-1.096 2.974h-.343l-1.096-2.974h-.005l.045.879v2.096h-.384v-3.333h.621l.732 2.025.252.833h.01l.258-.828.727-2.03z"/><use xlink:href="#J"/><path d="M124.168 17.016v1.904h-.286l-.796-1.275-.202-.358h-.003l.011.289v1.345h-.219v-1.904h.286l.793 1.27.205.366h.003l-.011-.291v-1.345zm.854 0v1.904h-.231v-1.904z"/><use xlink:href="#K"/><use xlink:href="#L"/><use xlink:href="#M"/><use xlink:href="#N"/><use xlink:href="#O"/><path d="M134.619 16.99q.185 0 .32.061.136.061.211.173.075.11.075.265 0 .147-.072.26-.069.11-.196.167v.003q.162.061.257.185.098.124.098.303 0 .167-.087.289-.087.121-.242.188-.153.066-.364.066-.208 0-.364-.066-.156-.066-.242-.188-.087-.121-.087-.289 0-.176.095-.3.095-.127.263-.188v-.003q-.124-.055-.199-.164-.072-.113-.072-.263 0-.156.075-.265.075-.113.211-.173.139-.061.32-.061zm0 .216q-.167 0-.268.081-.098.081-.098.225 0 .141.101.222.101.081.265.081.164 0 .265-.081.101-.081.101-.222 0-.144-.098-.225-.098-.081-.268-.081zm0 1.526q.141 0 .242-.04.101-.043.156-.121.055-.081.055-.188 0-.11-.058-.188-.055-.081-.156-.121-.101-.043-.239-.043-.136 0-.239.043-.101.04-.159.121-.055.078-.055.188 0 .107.055.188.055.078.156.121.104.04.242.04z"/><use xlink:href="#M" x="7.279"/><use xlink:href="#M" x="8.678"/><use xlink:href="#M" x="10.076"/><use xlink:href="#P"/><use xlink:href="#Q"/><use xlink:href="#P" x="4.024"/><use xlink:href="#M" x="17.566"/><use xlink:href="#P" x="7.49"/><use xlink:href="#P" x="9.558"/><use xlink:href="#M" x="23.101"/><use xlink:href="#M" x="24.5"/><use xlink:href="#P" x="14.423"/><use xlink:href="#Q" x="14.423"/><use xlink:href="#P" x="18.447"/><path d="M30.779 46.213h53.982v15.1H30.779z" paint-order="stroke markers fill" class="B C D F"/><path d="M30.772 49.733h53.995v8.06H30.772z" paint-order="stroke markers fill" class="H"/><use xlink:href="#R"/><path d="M40.414 55.668v-3.809h2.857v.641h-2.06v.946h1.622v.612H41.21v.97h2.141v.641z"/><use xlink:href="#S"/><use xlink:href="#T"/><use xlink:href="#B" x="-96.149" y="49.304"/><path d="M56.809 55.668l-1.108-3.809h.848l.75 3.145.762-3.145h.762l.773 3.145.744-3.145h.814l-1.108 3.809h-.894l-.531-2.078-.179-.9h-.012l-.179.9-.525 2.078z"/><use xlink:href="#B" x="-87.176" y="49.304"/><path d="M66.712 51.801q.519 0 .912.179.392.179.669.531l-.444.514q-.237-.3-.519-.439-.277-.144-.646-.144-.242 0-.404.063-.156.063-.231.167-.069.104-.069.231 0 .156.121.265.121.104.416.173l.71.162q.566.127.808.381.248.248.248.646 0 .375-.196.646-.196.265-.548.41-.352.139-.808.139-.398 0-.733-.092-.329-.098-.589-.265-.26-.167-.433-.387l.45-.537q.133.185.329.329.196.144.444.231.254.081.531.081.237 0 .398-.052.167-.058.248-.156.087-.104.087-.248 0-.15-.104-.254-.098-.11-.369-.167l-.773-.173q-.335-.081-.577-.208-.237-.133-.364-.335-.121-.208-.121-.491 0-.34.185-.612.185-.271.531-.427.352-.162.843-.162zm5.69.058q.439 0 .75.15.312.144.479.421.173.271.173.658 0 .387-.173.664-.167.271-.479.421-.312.144-.75.144H71.6v1.35h-.796v-3.809zm-.121 1.829q.358 0 .537-.15.179-.156.179-.45 0-.3-.179-.45-.179-.15-.537-.15H71.6v1.2z"/><use xlink:href="#B" x="-74.468" y="49.304"/><path d="M78.854 51.859v3.809h-.796v-3.809z"/><g class="B C"><path d="M121.468 46.445h54.063v8.06h-54.063z" paint-order="stroke markers fill" class="E H"/><path d="M121.494 54.813h54.011v12.506h-54.011z" paint-order="stroke markers fill" class="D F"/></g><use xlink:href="#R" x="96.429" y="-3.263"/><path d="M136.843 52.404v-3.809h2.857v.641h-2.06v.946h1.622v.612h-1.622v.97h2.141v.641z"/><use xlink:href="#S" x="96.429" y="-3.263"/><use xlink:href="#T" x="96.429" y="-3.264"/><path d="M152.205 48.596v3.809h-.796v-3.809zm-2.476 0v3.809h-.796v-3.809zm2.095 1.564v.641h-2.493v-.641z"/><use xlink:href="#U"/><path d="M158.091 51.764h2.008v.641h-2.805v-3.809h.796z"/><use xlink:href="#U" x="7.508"/><use xlink:href="#J" x="-43.894" y="46.04"/><path d="M131.524 60.491v-3.333h2.338v.379h-1.934v1.076h1.505v.379h-1.505v1.121h2.01v.379zm5.807-3.333l-1.262 3.333h-.46l-1.267-3.333h.434l.848 2.303.212.661.212-.656.848-2.308z"/><use xlink:href="#D" x="11.561" y="46.04"/><use xlink:href="#V"/><path d="M148.541 57.158l-1.262 3.333h-.46l-1.267-3.333h.434l.848 2.303.212.661.212-.656.848-2.308zm1.091 0v3.333h-.404v-3.333zm3.434 0v.379h-1.161v2.954h-.404v-2.954h-1.161v-.379z"/><use xlink:href="#H" x="-2.315" y="46.04"/><use xlink:href="#F" x="17.06" y="46.04"/><use xlink:href="#I" x="-4.911" y="46.04"/><path d="M165.71 57.158v3.333h-.384v-2.096l.045-.879h-.005l-1.096 2.974h-.343l-1.096-2.974h-.005l.046.879v2.096h-.384v-3.333h.621l.732 2.025.252.833h.01l.258-.828.727-2.03z"/><use xlink:href="#J" x="-4.911" y="46.04"/><path d="M129.079 63.057v1.904h-.286l-.796-1.275-.202-.358h-.003l.012.289v1.345h-.219v-1.904h.286l.794 1.27.205.366h.003l-.012-.291v-1.345zm.854 0v1.904h-.231v-1.904zm1.295 0q.193 0 .335.072.144.069.225.199.081.13.081.309 0 .179-.081.309-.081.13-.225.202-.141.069-.335.069h-.441v.744h-.231v-1.904zm-.035.944q.225 0 .329-.092.104-.095.104-.271 0-.179-.104-.271-.104-.092-.329-.092h-.407V64z"/><use xlink:href="#L" x="4.911" y="46.041"/><use xlink:href="#M" x="4.911" y="46.04"/><use xlink:href="#N" x="4.911" y="46.041"/><use xlink:href="#W"/><use xlink:href="#N" x="8.992" y="46.041"/><use xlink:href="#P" x="0.969" y="46.04"/><use xlink:href="#W" x="6.149"/><use xlink:href="#P" x="5.065" y="46.04"/><use xlink:href="#N" x="17.209" y="46.041"/><use xlink:href="#M" x="20.661" y="46.04"/><use xlink:href="#N" x="20.661" y="46.041"/><use xlink:href="#N" x="22.715" y="46.041"/><use xlink:href="#X"/><use xlink:href="#P" x="16.743" y="46.04"/><path d="M159.566 64.99q-.254 0-.45-.118-.193-.121-.263-.332l.231-.118q.035.107.095.188.061.078.159.121.101.043.251.043.127 0 .214-.046.087-.046.133-.124.046-.081.046-.185 0-.104-.04-.173-.037-.069-.121-.101-.084-.035-.219-.035-.032 0-.069.003-.037 0-.078.006v-.231q.026.003.049.003.026 0 .046 0 .211 0 .3-.081.089-.084.089-.26 0-.15-.092-.228-.092-.078-.263-.078-.182 0-.277.081-.095.078-.15.214l-.219-.104q.046-.121.138-.214.092-.092.222-.144.133-.052.291-.052.199 0 .329.069.13.066.193.179.066.113.066.248 0 .104-.029.188-.029.081-.081.141-.049.061-.113.098-.064.035-.136.046V64q.095.003.167.038.075.035.127.092.052.058.078.133.029.072.029.153 0 .167-.084.297-.081.13-.228.205-.147.072-.343.072z"/><use xlink:href="#M" x="32.183" y="46.04"/><use xlink:href="#P" x="22.107" y="46.04"/><use xlink:href="#P" x="24.175" y="46.04"/><use xlink:href="#Y"/><g class="B C"><path d="M209.099 46.487h66.435v8.031h-66.435z" paint-order="stroke markers fill" class="E H"/><path d="M209.212 54.909h66.208v28.083h-66.208z" paint-order="stroke markers fill" class="D F"/></g><use xlink:href="#R" x="190.563" y="-3.255"/><path d="M230.976 52.412v-3.809h2.857v.641h-2.06v.946h1.622v.612h-1.622v.97h2.141v.641z"/><use xlink:href="#S" x="190.562" y="-3.255"/><path d="M241.953 48.604l-1.35 2.383v1.425h-.796v-1.425l-1.35-2.383h.848l.612 1.137.289.6.294-.6.612-1.137z"/><use xlink:href="#U" x="89.309" y="0.008"/><path d="M247.4 51.772h2.008v.641h-2.805v-3.809h.796z"/><use xlink:href="#U" x="96.817" y="0.008"/><path d="M257.384 48.604v3.809h-.796v-3.809zm-2.476 0v3.809h-.796v-3.809zm2.095 1.564v.641h-2.493v-.641z"/><use xlink:href="#J" x="43.381" y="47.184"/><use xlink:href="#Z"/><use xlink:href="#V" x="80.816" y="1.144"/><use xlink:href="#D" x="99.068" y="47.184"/><use xlink:href="#C" x="105.647" y="47.184"/><path d="M232.256 58.302v3.333h-.404v-3.333z"/><use xlink:href="#G" x="83.883" y="47.184"/><path d="M237.325 61.256h1.909v.379h-2.313v-3.333h.404zm5.883-2.954v2.192q0 .561-.303.879-.298.313-.828.313-.374 0-.616-.141-.242-.141-.338-.399-.091-.263-.025-.611l.374-.076q-.055.429.076.641.136.207.515.207.429 0 .586-.232.157-.237.157-.682v-2.091z"/><use xlink:href="#D" x="117.993" y="47.184"/><path d="M249.444 58.302l-1.192 2.03v1.303h-.404v-1.303l-1.192-2.03h.48l.646 1.141.268.475.268-.475.646-1.141z"/><use xlink:href="#D" x="123.558" y="47.184"/><use xlink:href="#F" x="112.666" y="47.184"/><path d="M256.877 61.029q.121 0 .202.066.086.061.131.172.045.106.045.252 0 .167-.061.328-.055.162-.177.298-.121.136-.313.227l-.212-.197q.136-.045.237-.126.106-.081.172-.182.066-.101.086-.207l-.02-.01q-.02.015-.05.025-.03.01-.091.01-.061 0-.126-.035-.061-.035-.106-.101-.045-.071-.045-.182 0-.091.045-.167.046-.081.116-.126.076-.045.167-.045z"/><use xlink:href="#E" x="128.608" y="47.184"/><use xlink:href="#J" x="90.695" y="47.184"/><use xlink:href="#a"/><path d="M217.207 64.201v1.904h-.231v-1.904z"/><use xlink:href="#K" x="92.185" y="47.185"/><use xlink:href="#L" x="92.185" y="47.185"/><use xlink:href="#M" x="92.185" y="47.184"/><use xlink:href="#N" x="92.186" y="47.185"/><use xlink:href="#W" x="87.274" y="1.144"/><use xlink:href="#Y" x="59.947" y="1.144"/><use xlink:href="#P" x="88.143" y="47.184"/><use xlink:href="#O" x="98.233" y="47.185"/><use xlink:href="#Q" x="89.977" y="47.184"/><use xlink:href="#X" x="79.309" y="1.144"/><use xlink:href="#M" x="107.526" y="47.184"/><use xlink:href="#N" x="107.526" y="47.185"/><use xlink:href="#N" x="109.58" y="47.185"/><use xlink:href="#Q" x="99.489" y="47.184"/><use xlink:href="#P" x="103.512" y="47.184"/><use xlink:href="#b"/><use xlink:href="#c"/><use xlink:href="#P" x="109.433" y="47.184"/><use xlink:href="#P" x="111.501" y="47.184"/><use xlink:href="#M" x="125.044" y="47.184"/><path d="M216.168 71.416q.783 0 1.227.434.449.429.449 1.232 0 .803-.449 1.237-.444.429-1.227.429h-1.076v-3.333zm.04 2.954q.571 0 .889-.338.323-.343.323-.949 0-.606-.323-.944-.318-.343-.889-.343h-.712v2.575zm2.424.378v-2.525h.328l.055.414q.106-.232.308-.348.207-.116.5-.116.066 0 .141.01.081.01.136.04l-.071.369q-.055-.02-.121-.03-.066-.01-.187-.01-.157 0-.318.091-.157.091-.263.278-.106.182-.106.465v1.363zm3.464-1.631q0-.283-.151-.434-.151-.157-.429-.157-.263 0-.444.116-.182.111-.268.364l-.328-.202q.101-.283.374-.454.273-.177.677-.177.273 0 .495.096.222.091.348.283.131.187.131.485v1.222q0 .182.192.182.096 0 .187-.025l-.02.318q-.101.05-.263.05-.146 0-.263-.056-.116-.056-.182-.167-.066-.116-.066-.288v-.05l.101.015q-.061.197-.207.323-.146.121-.328.182-.182.056-.359.056-.222 0-.414-.076-.192-.076-.308-.227-.111-.157-.111-.384 0-.283.187-.465.192-.187.53-.252l1-.197v.333l-.813.167q-.247.05-.369.141-.121.091-.121.252 0 .157.121.258.126.096.353.096.146 0 .278-.035.136-.04.242-.116.106-.081.167-.197.061-.121.061-.283z"/><use xlink:href="#Z" x="4.756" y="13.114"/><use xlink:href="#J" x="53.187" y="60.298"/><path d="M228.731 71.739q-.136 0-.222-.081-.081-.086-.081-.222 0-.136.081-.217.086-.086.222-.086.136 0 .217.086.086.081.086.217 0 .136-.086.222-.081.081-.217.081zm.202.485v2.782q0 .313-.121.495-.121.182-.298.258-.177.076-.348.076-.157 0-.288-.05-.131-.045-.217-.116l.086-.384q.071.066.177.111.106.045.237.045.162 0 .263-.106.106-.106.106-.369v-2.742z"/><use xlink:href="#Z" x="11.149" y="13.114"/><path d="M234.695 71.416v2.192q0 .561-.303.879-.298.313-.828.313-.374 0-.616-.141-.242-.141-.338-.399-.091-.263-.025-.611l.374-.076q-.056.429.076.641.136.207.515.207.429 0 .586-.232.157-.237.157-.682v-2.091zm1.055 3.332v-3.333h2.338v.379h-1.934v1.076h1.505v.379h-1.505v1.121h2.01v.379z"/><use xlink:href="#V" x="97.924" y="14.258"/><use xlink:href="#F" x="101.951" y="60.298"/><path d="M246.44 71.416v3.333h-.404v-3.333zm1.495 2.954h1.909v.379h-2.313v-3.333h.404z"/><use xlink:href="#D" x="124.396" y="60.297"/><use xlink:href="#F" x="113.505" y="60.298"/><path d="M257.716 74.143q.121 0 .202.066.086.061.131.172.045.106.045.252 0 .167-.061.328-.055.162-.177.298-.121.136-.313.227l-.212-.197q.136-.045.237-.126.106-.081.172-.182.066-.101.086-.207l-.02-.01q-.02.015-.05.025-.03.01-.091.01-.061 0-.126-.035-.061-.035-.106-.101-.045-.071-.045-.182 0-.091.045-.167.045-.081.116-.126.076-.045.167-.045zm4.438-2.727v3.333h-.384v-2.096l.046-.879h-.005l-1.096 2.974h-.343l-1.096-2.974h-.005l.046.879v2.096h-.384v-3.333h.621l.732 2.025.252.833h.01l.258-.828.727-2.03z"/><use xlink:href="#Z" x="44.446" y="13.114"/><path d="M265.765 71.416q.338 0 .586.126.252.121.394.348.141.227.141.54 0 .313-.141.54-.141.227-.394.353-.247.121-.586.121h-.773v1.303h-.404v-3.333zm-.061 1.651q.394 0 .576-.162.182-.167.182-.475 0-.313-.182-.475-.182-.162-.576-.162h-.712v1.272zm2.828 1.732q-.313 0-.576-.157-.263-.157-.419-.449-.157-.298-.157-.707 0-.419.167-.712.167-.293.439-.444.273-.157.586-.157.313 0 .54.162.232.162.308.429l-.05.035v-1.737h.404v3.686h-.353l-.035-.611.055-.03q-.035.222-.172.379-.131.151-.328.232-.192.081-.409.081zm.04-.353q.242 0 .419-.121.182-.121.278-.343.101-.227.101-.53 0-.288-.101-.495-.096-.207-.273-.318-.172-.111-.404-.111-.384 0-.596.263-.212.263-.212.697 0 .434.207.697.207.263.581.263z"/><use xlink:href="#a" y="13.113"/><path d="M217.207 77.314v1.904h-.231v-1.904z"/><use xlink:href="#K" x="92.185" y="60.298"/><use xlink:href="#L" x="92.185" y="60.298"/><use xlink:href="#M" x="92.185" y="60.297"/><use xlink:href="#N" x="92.186" y="60.298"/><use xlink:href="#W" x="87.274" y="14.257"/><use xlink:href="#Y" x="59.947" y="14.257"/><use xlink:href="#P" x="88.143" y="60.297"/><use xlink:href="#O" x="98.233" y="60.298"/><use xlink:href="#Q" x="89.977" y="60.297"/><use xlink:href="#X" x="79.309" y="14.257"/><use xlink:href="#M" x="107.526" y="60.297"/><use xlink:href="#N" x="107.526" y="60.298"/><use xlink:href="#N" x="109.58" y="60.298"/><use xlink:href="#Q" x="99.489" y="60.297"/><use xlink:href="#P" x="103.512" y="60.297"/><use xlink:href="#b" y="13.113"/><use xlink:href="#c" y="13.113"/><use xlink:href="#P" x="109.433" y="60.297"/><use xlink:href="#P" x="111.501" y="60.297"/><use xlink:href="#M" x="125.044" y="60.297"/><path d="M9.788 105.996h65.11v16.203H9.788z" paint-order="stroke markers fill" class="B C E G"/><use xlink:href="#d"/><use xlink:href="#e"/><use xlink:href="#f"/><use xlink:href="#g"/><use xlink:href="#h"/><path d="M34.226 108.945q.444 0 .78.153.336.153.573.454l-.38.44q-.202-.257-.444-.375-.237-.123-.553-.123-.207 0-.346.054-.133.054-.198.143-.059.089-.059.198 0 .133.104.227.104.089.356.148l.607.138q.484.109.691.326.212.212.212.553 0 .321-.168.553-.168.227-.469.351-.301.119-.691.119-.341 0-.627-.079-.282-.084-.504-.227-.222-.143-.37-.331l.385-.459q.114.158.282.282.168.123.38.198.217.069.454.069.202 0 .341-.044.143-.049.212-.133.074-.089.074-.212 0-.128-.089-.217-.084-.094-.316-.143l-.662-.148q-.286-.069-.494-.178-.202-.114-.311-.286-.104-.178-.104-.42 0-.291.158-.524.158-.232.454-.365.301-.138.721-.138z"/><use xlink:href="#h" x="6.688"/><use xlink:href="#f" x="16.935"/><use xlink:href="#i"/><use xlink:href="#f" x="23.899"/><use xlink:href="#j"/><use xlink:href="#i" x="11.764"/><use xlink:href="#k"/><use xlink:href="#i" x="18.728"/><use xlink:href="#f" x="42.627"/><use xlink:href="#l"/><use xlink:href="#e" x="-0.146" y="6.428"/><path d="M24.079 115.423q.553 0 .869.267.316.267.316.716 0 .479-.316.736-.316.252-.864.252l-.069.04h-.701v1.25h-.672v-3.26zM24 116.914q.286 0 .425-.114.143-.119.143-.361 0-.242-.143-.356-.138-.119-.425-.119h-.687v.948zm.4.143l1.057 1.625h-.766l-.874-1.427z"/><use xlink:href="#h" x="-3.529" y="6.429"/><use xlink:href="#m"/><use xlink:href="#i" x="-9.471" y="6.428"/><use xlink:href="#k" x="-21.234" y="6.429"/><path d="M44.852 115.423v.548H43.76v2.711h-.682v-2.711h-1.096v-.548z"/><use xlink:href="#i" x="1.617" y="6.428"/><use xlink:href="#f" x="25.516" y="6.429"/><use xlink:href="#n"/><use xlink:href="#n" x="3.571"/><use xlink:href="#i" x="15.723" y="6.428"/><use xlink:href="#i" x="19.037" y="6.428"/><use xlink:href="#f" x="42.936" y="6.429"/><path d="M9.706 122.521h65.273v23.415H9.706z" paint-order="stroke markers fill" class="B C D J"/><path d="M15.533 125.942v3.335h-.368v-3.335zm3.923 0v3.335h-.349v-2.097l.041-.879h-.005l-.997 2.976h-.312l-.997-2.976h-.005l.041.879v2.097h-.349v-3.335h.565l.666 2.026.23.834h.009l.234-.829.662-2.031z"/><use xlink:href="#o"/><path d="M23.748 128.898h1.737v.379H23.38v-3.335h.368z"/><use xlink:href="#p"/><path d="M31.756 129.277h-.391l-.322-.925H29.67l-.322.925h-.386l1.181-3.335h.436zm-1.953-1.304h1.107l-.556-1.642zm2.729.697q.11 0 .184.066.078.061.119.172.041.106.041.253 0 .167-.055.328-.051.162-.161.298-.11.136-.285.227l-.193-.197q.124-.046.216-.126.096-.081.156-.182.06-.101.078-.207l-.018-.01q-.018.015-.046.025-.028.01-.083.01-.055 0-.115-.035-.055-.035-.096-.101-.041-.071-.041-.182 0-.091.041-.167.041-.081.106-.126.069-.046.152-.046z"/><use xlink:href="#q"/><use xlink:href="#q" x="2.946"/><path d="M16.312 131.844v1.906h-.26l-.725-1.276-.184-.358h-.003l.01.289v1.346h-.2v-1.906h.26l.722 1.27.186.367h.003l-.01-.292v-1.346zm.778 0v1.906h-.21v-1.906zm1.178 0q.176 0 .305.072.131.069.205.199.074.13.074.309 0 .179-.074.309-.074.13-.205.202-.129.069-.305.069h-.402v.745h-.21v-1.906zm-.032.944q.205 0 .299-.092.095-.095.095-.271 0-.179-.095-.271-.095-.092-.299-.092h-.37v.728zm.775.615q.076 0 .123.052.047.052.047.136 0 .084-.047.136-.047.052-.123.052-.076 0-.123-.052-.047-.052-.047-.136 0-.084.047-.136.047-.052.123-.052z"/><use xlink:href="#r"/><path d="M22.308 131.815q.218 0 .368.127.15.124.226.346.076.219.076.508 0 .321-.076.54-.076.217-.226.329-.147.113-.365.113-.215 0-.37-.11-.155-.11-.231-.32l.207-.121q.042.15.137.243.097.092.265.092.137 0 .226-.058.092-.061.144-.17.053-.113.074-.269.024-.156.024-.346 0-.006 0-.012 0-.008 0-.014h-.01q-.032.13-.11.211-.079.078-.179.113-.097.035-.194.035-.171 0-.302-.072-.131-.075-.205-.208-.074-.133-.074-.315 0-.196.071-.338.071-.144.205-.222.134-.081.32-.081zm.003.222q-.184 0-.281.113-.097.11-.097.309 0 .17.102.271.102.098.276.098.113 0 .197-.049.087-.052.134-.139.047-.09.047-.205 0-.121-.047-.211-.047-.09-.134-.139-.084-.049-.197-.049zm1.894-.219q.168 0 .291.061.123.061.192.173.068.11.068.266 0 .147-.066.26-.063.11-.179.167v.003q.147.061.234.185.089.124.089.303 0 .167-.079.289-.079.121-.221.188-.139.066-.331.066-.189 0-.331-.066-.142-.066-.221-.188-.079-.121-.079-.289 0-.176.087-.3.087-.127.239-.188v-.003q-.113-.055-.181-.165-.066-.113-.066-.263 0-.156.068-.266.068-.113.192-.173.126-.061.291-.061zm0 .217q-.152 0-.244.081-.089.081-.089.225 0 .141.092.222.092.081.242.081.15 0 .242-.081.092-.081.092-.222 0-.144-.089-.225-.089-.081-.244-.081zm0 1.527q.129 0 .221-.04.092-.043.142-.121.05-.081.05-.188 0-.11-.053-.188-.05-.081-.142-.121-.092-.043-.218-.043-.123 0-.218.043-.092.04-.144.121-.05.078-.05.188 0 .107.05.188.05.078.142.121.095.04.221.04z"/><use xlink:href="#r" x="5.007"/><use xlink:href="#s"/><path d="M29.265 131.815q.139 0 .242.043.105.04.181.13.076.087.129.228l-.194.101q-.039-.133-.129-.208-.087-.078-.242-.078-.113 0-.2.064-.087.061-.147.17-.06.11-.092.257-.029.147-.029.318 0 .006 0 .017 0 .012 0 .035h.01q.029-.124.105-.199.079-.078.176-.113.1-.038.194-.038.176 0 .307.075.131.075.202.214.074.139.074.329 0 .188-.074.329-.074.139-.207.214-.131.075-.315.075-.218 0-.368-.127-.15-.127-.226-.346-.076-.222-.076-.508 0-.32.089-.537.089-.219.242-.332.155-.113.347-.113zm-.01.95q-.113 0-.2.052-.084.049-.131.139-.047.087-.047.202 0 .11.05.202.05.09.134.144.087.052.194.052.179 0 .278-.104.1-.107.1-.295 0-.121-.045-.208-.045-.09-.129-.136-.084-.049-.205-.049z"/><use xlink:href="#t"/><use xlink:href="#s" x="5.505"/><use xlink:href="#u"/><use xlink:href="#s" x="9.166"/><use xlink:href="#s" x="11.048"/><use xlink:href="#r" x="19.209"/><use xlink:href="#r" x="20.481"/><use xlink:href="#s" x="15.474"/><use xlink:href="#r" x="23.635"/><use xlink:href="#u" x="11.241"/><use xlink:href="#s" x="20.407"/><use xlink:href="#s" x="22.289"/><use xlink:href="#t" x="20.392"/><use xlink:href="#v"/><use xlink:href="#w"/><use xlink:href="#x"/><use xlink:href="#y"/><use xlink:href="#o" x="7.548" y="13.122"/><use xlink:href="#y" x="6.304"/><path d="M35.523 142.449q-.432 0-.749-.207-.312-.212-.487-.596-.17-.384-.17-.915 0-.531.179-.915.184-.384.51-.591.326-.212.749-.212.45 0 .731.187.285.187.459.576l-.335.202q-.101-.288-.322-.435-.216-.152-.533-.152-.308 0-.547.162-.234.157-.372.46-.133.298-.133.718 0 .419.115.723.119.298.349.46.234.157.57.157.188 0 .349-.051.165-.056.285-.162.124-.106.193-.268.069-.162.069-.379v-.116h-.965v-.379h1.3v1.683h-.289l-.018-.622.078.015q-.119.313-.377.485-.257.172-.639.172z"/><use xlink:href="#z"/><path d="M40.94 139.064v3.335h-.368v-3.335z"/><use xlink:href="#v" x="26.767"/><path d="M154.815 105.996h64.955v23.185h-64.955z" paint-order="stroke markers fill" class="B C E G"/><use xlink:href="#l" x="143.7" y="-5.893"/><use xlink:href="#e" x="143.554" y="0.536"/><path d="M167.023 112.242h1.719v.548h-2.4v-3.26h.682z"/><use xlink:href="#AA"/><use xlink:href="#m" x="143.354" y="-5.893"/><use xlink:href="#d" x="160.785" y="0.536"/><use xlink:href="#AA" x="11.246"/><use xlink:href="#l" x="167.945" y="-5.893"/><use xlink:href="#d" x="172.461" y="0.536"/><use xlink:href="#e" x="172.461" y="0.536"/><use xlink:href="#f" x="172.461" y="0.536"/><use xlink:href="#g" x="172.461" y="0.536"/><use xlink:href="#h" x="172.462" y="0.536"/><path d="M206.179 112.242h1.719v.548h-2.4v-3.26h.682z"/><use xlink:href="#h" x="178.887" y="0.536"/><use xlink:href="#k" x="153.472" y="0.536"/><use xlink:href="#i" x="120.627" y="6.965"/><use xlink:href="#n" x="115.242" y="0.536"/><use xlink:href="#i" x="127.394" y="6.965"/><use xlink:href="#m" x="144.574" y="0.536"/><use xlink:href="#i" x="135.103" y="6.965"/><path d="M183.84 115.959v3.26h-.682v-3.26z"/><use xlink:href="#AB"/><path d="M188.552 118.67h1.719v.548h-2.4v-3.26h.682z"/><use xlink:href="#i" x="147.465" y="6.965"/><use xlink:href="#m" x="164.645" y="0.536"/><path d="M201.072 115.559l.336.326q-.296.267-.479.568-.183.296-.267.642-.079.346-.079.761 0 .415.079.766.084.346.267.642.183.296.479.568l-.336.331q-.548-.41-.835-.988-.282-.578-.282-1.319 0-.736.282-1.314.286-.583.835-.983z"/><use xlink:href="#d" x="185.406" y="6.965"/><use xlink:href="#i" x="161.398" y="6.965"/><path d="M208.766 115.959v3.26h-.682v-3.26zm.806 4.203l-.336-.331q.296-.272.479-.568.183-.296.262-.642.084-.351.084-.761 0-.42-.084-.766-.079-.346-.262-.642-.183-.301-.479-.568l.336-.326q.548.4.83.983.286.578.286 1.319 0 .736-.286 1.314-.282.578-.83.988z"/><use xlink:href="#f" x="153.683" y="13.394"/><use xlink:href="#AA" x="10.92" y="12.857"/><use xlink:href="#f" x="160.993" y="13.394"/><use xlink:href="#AC"/><use xlink:href="#f" x="169.345" y="13.394"/><use xlink:href="#AB" x="11.092" y="6.428"/><g class="B C"><path d="M154.656 129.493h65.273v23.415h-65.273z" paint-order="stroke markers fill" class="D J"/><path d="M88.917 105.996h51.944v16.23H88.917z" paint-order="stroke markers fill" class="E G"/></g><use xlink:href="#d" x="81.91" y="0.03"/><use xlink:href="#e" x="81.91" y="0.029"/><use xlink:href="#f" x="81.91" y="0.03"/><use xlink:href="#g" x="81.91" y="0.03"/><use xlink:href="#h" x="81.91" y="0.03"/><path d="M116.136 108.974q.445 0 .78.153.336.153.573.454l-.38.44q-.202-.257-.445-.375-.237-.123-.553-.123-.207 0-.346.054-.133.054-.198.143-.059.089-.059.198 0 .133.104.227.104.089.356.148l.607.138q.484.109.691.326.212.212.212.553 0 .321-.168.553-.168.227-.469.351-.301.119-.691.119-.341 0-.627-.079-.282-.084-.504-.227-.222-.143-.37-.331l.385-.459q.114.158.282.282.168.123.38.198.217.069.454.069.202 0 .341-.044.143-.049.212-.133.074-.089.074-.212 0-.128-.089-.217-.084-.094-.316-.143l-.662-.148q-.286-.069-.494-.178-.203-.114-.311-.286-.104-.178-.104-.42 0-.291.158-.524.158-.232.454-.365.301-.138.721-.138z"/><use xlink:href="#h" x="88.598" y="0.03"/><use xlink:href="#f" x="98.845" y="0.03"/><use xlink:href="#i" x="81.91" y="0.029"/><use xlink:href="#f" x="105.809" y="0.03"/><path d="M104.268 118.164h1.719v.548h-2.4v-3.26h.682z"/><use xlink:href="#i" x="63.181" y="6.458"/><use xlink:href="#d" x="93.397" y="6.458"/><use xlink:href="#AA" x="-56.142" y="5.922"/><path d="M118.156 115.452q.553 0 .869.267.316.267.316.716 0 .479-.316.736-.316.252-.864.252l-.069.04h-.701v1.25h-.672v-3.26zm-.079 1.492q.286 0 .425-.114.143-.119.143-.361 0-.242-.143-.356-.138-.119-.425-.119h-.686v.948zm.4.143l1.057 1.625h-.766l-.874-1.427z"/><use xlink:href="#i" x="76.704" y="6.458"/><use xlink:href="#f" x="100.603" y="6.458"/><path d="M88.843 122.537h52.091v19.617H88.843z" paint-order="stroke markers fill" class="B C D F"/><use xlink:href="#AD"/><path d="M99.379 128.452q-.096.283-.276.49-.179.202-.423.308-.239.106-.524.106-.432 0-.749-.207-.312-.212-.487-.596-.17-.384-.17-.915 0-.531.17-.915.175-.384.487-.591.317-.212.74-.212.294 0 .524.091.23.086.391.263.165.172.262.424l-.363.187q-.101-.288-.294-.435-.188-.152-.492-.152-.308 0-.542.162-.234.157-.368.455-.129.298-.129.723 0 .419.124.723.124.298.354.46.23.157.542.157.303 0 .528-.167.225-.172.326-.51zm1.075-2.481v3.335h-.368v-3.335zm3.629 0q.308 0 .533.126.23.121.358.349.129.227.129.541 0 .313-.129.541-.129.227-.358.354-.225.121-.533.121h-.703v1.304h-.368v-3.335zm-.055 1.652q.358 0 .524-.162.165-.167.165-.475 0-.313-.165-.475-.165-.162-.524-.162h-.648v1.273z"/><use xlink:href="#w" x="87.057" y="-13.093"/><use xlink:href="#x" x="87.058" y="-13.093"/><path d="M112.05 125.971v3.335h-.368v-3.335z"/><use xlink:href="#w" x="94.505" y="-13.093"/><path d="M118.455 125.971v3.335H118l-1.268-2.233-.322-.627h-.005l.018.505v2.355h-.349v-3.335h.455l1.263 2.223.326.642h.005l-.018-.51v-2.355zm3.124 0v.379h-1.057v2.956h-.368v-2.956h-1.057v-.379zm1.011 0v3.335h-.368v-3.335z"/><use xlink:href="#o" x="73.232" y="8.683"/><path d="M96.98 137.581h1.737v.379h-2.104v-3.335h.368zm4.255-2.956l-1.149 3.335h-.418l-1.153-3.335h.395l.772 2.304.193.662.193-.657.772-2.309zm.992 0v3.335h-.368v-3.335z"/><use xlink:href="#z" x="67.159" y="-4.439"/><use xlink:href="#AD" x="14.049" y="8.654"/><use xlink:href="#x" x="89.415" y="-4.439"/><use xlink:href="#w" x="95.502" y="-4.439"/><path d="M118.79 134.625v.379h-1.057v2.956h-.368v-2.956h-1.057v-.379z"/><use xlink:href="#AE"/><path d="M123.725 134.625v3.335h-.368v-3.335z"/><g class="B C"><path d="M234.639 116.224h52.172v9.496h-52.172z" stroke-width=".184" paint-order="stroke markers fill" class="D"/><path d="M234.667 105.996h52.117v9.917h-52.117z" paint-order="stroke markers fill" class="E G"/></g><use xlink:href="#AC" x="52.635" y="-13.088"/><use xlink:href="#e" x="225.107" y="0.306"/><use xlink:href="#AF"/><use xlink:href="#g" x="225.107" y="0.306"/><use xlink:href="#i" x="210.818" y="0.306"/><path d="M259.663 109.3v2.06q0 .588-.331.919-.331.331-.938.331-.435 0-.706-.158-.272-.158-.375-.445-.104-.286-.039-.657l.662-.119q-.059.435.054.627.114.193.42.193.321 0 .445-.198.128-.198.128-.588V109.3zm1.482 0v3.26h-.682v-3.26z"/><use xlink:href="#j" x="211.658" y="0.306"/><use xlink:href="#i" x="223.422" y="0.306"/><use xlink:href="#k" x="211.659" y="0.306"/><use xlink:href="#i" x="230.386" y="0.306"/><use xlink:href="#AF" x="29.179"/><use xlink:href="#AE" x="120.084" y="-15.233"/><use xlink:href="#AD" x="149.76" y="-6.579"/><use xlink:href="#v" x="231.529" y="-19.672"/><use xlink:href="#w" x="231.529" y="-19.672"/><use xlink:href="#AE" x="133.665" y="-15.233"/><use xlink:href="#AE" x="137.589" y="-15.233"/><use xlink:href="#w" x="242.409" y="-19.672"/><use xlink:href="#p" x="237.851" y="-6.55"/><use xlink:href="#o" x="248.409" y="-6.55"/><use xlink:href="#p" x="245.662" y="-6.55"/><path d="M277.096 119.392l-1.084 2.031v1.304h-.368v-1.304l-1.084-2.031h.436l.588 1.142.244.475.244-.475.588-1.142z"/><path d="M114.311 92.216v13.866m71.671-14.035v13.866" fill="none" class="B I"/><defs ><path id="B" d="M151.96 6.364h-.825l-.317-.929h-1.46l-.317.929h-.814l1.391-3.809h.952zm-2.424-1.518h1.102l-.554-1.662z"/><path id="C" d="M122.907 14.451v-3.333h1.187q.591 0 .863.247.273.247.273.672 0 .252-.146.46-.146.202-.414.258v.005q.298.056.47.273.177.212.177.485 0 .424-.318.682-.318.252-.909.252zm.404-.379h.874q.359 0 .53-.146.177-.146.177-.409 0-.268-.177-.409-.172-.146-.53-.146h-.874zm0-1.49h.788q.707 0 .707-.545 0-.54-.707-.54h-.788z"/><path id="D" d="M128.81 14.451h-.429l-.353-.924h-1.51l-.353.924h-.424l1.298-3.333h.48zm-2.146-1.303h1.217l-.611-1.641z"/><path id="E" d="M132.708 11.118v3.333h-.384v-2.096l.045-.879h-.005l-1.096 2.974h-.343l-1.096-2.974h-.005l.045.879v2.096h-.384v-3.333h.621l.732 2.025.252.833h.01l.258-.828.727-2.03z"/><path id="F" d="M142.994 11.118v3.333h-.5l-1.394-2.232-.353-.626h-.005l.02.505v2.353h-.384v-3.333h.5l1.389 2.222.359.641h.005l-.02-.51v-2.353z"/><path id="G" d="M152.013 11.118v2.091q0 .641-.338.97-.338.323-.97.323-.626 0-.97-.323-.338-.328-.338-.97v-2.091h.404v1.99q0 .52.217.768.222.247.687.247.465 0 .682-.247.222-.247.222-.768v-1.99z"/><path id="H" d="M157.32 11.068q.475 0 .818.212.348.207.535.591.192.384.192.914 0 .53-.192.914-.187.384-.535.596-.343.207-.818.207-.475 0-.823-.207-.343-.212-.535-.596-.187-.384-.187-.914 0-.53.187-.914.192-.384.535-.591.348-.212.823-.212zm0 .379q-.343 0-.596.162-.252.157-.389.46-.136.298-.136.717 0 .419.136.722.136.298.389.46.252.157.596.157.348 0 .596-.157.252-.162.389-.46.136-.303.136-.722 0-.419-.136-.717-.136-.303-.389-.46-.247-.162-.596-.162z"/><path id="I" d="M166.182 13.845q.121 0 .202.066.086.061.131.172.046.106.046.252 0 .167-.061.328-.055.162-.177.298-.121.136-.313.227l-.212-.197q.136-.045.237-.126.106-.081.172-.182.066-.101.086-.207l-.02-.01q-.02.015-.05.025-.03.01-.091.01-.061 0-.126-.035-.061-.035-.106-.101-.045-.071-.045-.182 0-.091.045-.167.046-.081.116-.126.076-.045.167-.045z"/><path id="J" d="M174.327 11.118v3.333h-.404v-3.333zm-2.212 0v3.333h-.404v-3.333zm1.995 1.454v.379h-2.186v-.379z"/><path id="K" d="M126.318 17.016q.193 0 .335.072.144.069.225.199.081.13.081.309 0 .179-.081.309-.081.13-.225.202-.141.069-.335.069h-.441v.744h-.231v-1.904zm-.035.944q.225 0 .329-.092.104-.095.104-.271 0-.179-.104-.271-.104-.092-.329-.092h-.407v.727z"/><path id="L" d="M127.134 18.574q.084 0 .136.052.052.052.052.136 0 .084-.052.136-.052.052-.136.052-.084 0-.136-.052-.052-.052-.052-.136 0-.084.052-.136.052-.052.136-.052z"/><path id="M" d="M129.102 18.921v-1.397q0-.049 0-.104.003-.058.006-.118-.098.095-.228.167-.13.069-.265.101l-.061-.211q.052-.006.13-.038.081-.035.167-.084.089-.052.164-.11.075-.058.115-.113h.202v1.904z"/><path id="N" d="M130.757 16.987q.239 0 .404.127.164.124.248.346.084.219.084.508 0 .32-.084.54-.084.216-.248.329-.162.113-.401.113-.237 0-.407-.11-.17-.11-.254-.32l.228-.121q.046.15.15.242.107.092.291.092.15 0 .248-.058.101-.061.159-.17.058-.113.081-.268.026-.156.026-.346 0-.006 0-.012 0-.009 0-.014h-.012q-.035.13-.121.211-.087.078-.196.113-.107.035-.214.035-.188 0-.332-.072-.144-.075-.225-.208-.081-.133-.081-.315 0-.196.078-.338.078-.144.225-.222.147-.081.352-.081zm.003.222q-.202 0-.309.113-.107.11-.107.309 0 .17.113.271.113.098.303.098.124 0 .216-.049.095-.052.147-.139.052-.089.052-.205 0-.121-.052-.211-.052-.089-.147-.139-.092-.049-.216-.049z"/><path id="O" d="M132.012 17.016h1.402v.216q-.239.254-.392.522-.15.265-.219.554-.069.289-.069.612h-.237q0-.32.078-.626.081-.309.242-.592.162-.283.401-.528l.037.058h-1.244z"/><path id="P" d="M140.874 18.95q-.323 0-.517-.251-.193-.251-.193-.73 0-.479.193-.73.193-.251.517-.251.326 0 .517.251.193.251.193.73 0 .479-.193.73-.19.251-.517.251zm0-.208q.153 0 .257-.087.107-.089.159-.263.055-.173.055-.424 0-.251-.055-.424-.052-.173-.159-.26-.104-.089-.257-.089-.153 0-.26.089-.104.087-.159.26-.052.173-.052.424 0 .251.052.424.055.173.159.263.107.087.26.087z"/><path id="Q" d="M142.258 18.921v-.188q.286-.211.476-.369.193-.159.309-.289.115-.13.164-.245.049-.118.049-.245 0-.17-.11-.274-.107-.107-.294-.107-.196 0-.315.13-.118.127-.138.34l-.202-.121q.026-.167.107-.294.084-.127.222-.199.141-.072.335-.072.147 0 .263.043.118.043.202.124.084.078.127.188.046.11.046.242 0 .179-.087.352-.087.17-.286.358-.199.188-.54.416v.003q.032-.003.087-.003.058-.003.113-.003.058-.003.087-.003h.667v.216z"/><path id="R" d="M38.284 51.859q.439 0 .75.15.312.144.479.421.173.271.173.658 0 .387-.173.664-.167.271-.479.421-.312.144-.75.144h-.802v1.35h-.796v-3.809zm-.121 1.829q.358 0 .537-.15.179-.156.179-.45 0-.3-.179-.45-.179-.15-.537-.15h-.681v1.2z"/><path id="S" d="M47.339 51.859v3.809h-.912l-1.333-2.239-.329-.623h-.006l.023.658v2.205h-.716v-3.809h.906l1.333 2.233.329.629h.012l-.023-.658v-2.205z"/><path id="T" d="M49.895 55.726q-.525 0-.923-.231-.392-.231-.612-.669-.219-.439-.219-1.056 0-.612.231-1.05.231-.444.652-.681.421-.237.987-.237.617 0 .998.231.381.225.606.704l-.739.317q-.092-.306-.317-.45-.219-.15-.542-.15-.323 0-.56.156-.237.15-.364.444-.127.289-.127.71 0 .433.121.733.121.294.358.444.242.144.594.144.19 0 .352-.046.167-.046.289-.139.121-.092.19-.237.069-.144.069-.335v-.087h-.998v-.583h1.685v2.008h-.56l-.058-.831.139.098q-.127.381-.45.589-.317.202-.802.202z"/><path id="U" d="M156.377 48.596v2.308q0 .779-.416 1.172-.416.387-1.212.387-.796 0-1.212-.387-.416-.392-.416-1.172v-2.308h.796v2.274q0 .479.202.71.208.231.629.231.421 0 .623-.231.202-.231.202-.71v-2.274z"/><path id="V" d="M142.31 57.158q.51 0 .818.263.308.263.308.712 0 .449-.313.702-.308.247-.818.247l-.035.025h-.818v1.384h-.404v-3.333zm-.005 1.57q.359 0 .53-.146.177-.151.177-.449 0-.298-.177-.444-.172-.151-.53-.151h-.853v1.192zm.232.081l1.101 1.682h-.48l-.959-1.459z"/><path id="W" d="M137.797 63.028q.153 0 .265.043.115.04.199.13.084.087.141.228l-.214.101q-.043-.133-.141-.208-.095-.078-.265-.078-.124 0-.219.063-.095.061-.162.17-.066.11-.101.257-.032.147-.032.317 0 .006 0 .017 0 .012 0 .035h.012q.032-.124.115-.199.087-.078.193-.113.11-.038.214-.038.193 0 .338.075.144.075.222.214.081.139.081.329 0 .188-.081.329-.081.139-.228.214-.144.075-.346.075-.239 0-.404-.127-.164-.127-.248-.346-.084-.222-.084-.508 0-.32.098-.537.098-.219.265-.332.17-.113.381-.113zm-.012.949q-.124 0-.219.052-.092.049-.144.139-.052.087-.052.202 0 .11.055.202.055.089.147.144.095.052.214.052.196 0 .306-.104.11-.107.11-.294 0-.121-.049-.208-.049-.089-.141-.136-.092-.049-.225-.049z"/><path id="X" d="M155.557 63.031q.185 0 .32.061.136.061.211.173.075.11.075.265 0 .147-.072.26-.069.11-.196.167v.003q.162.061.257.185.098.124.098.303 0 .167-.087.289-.087.121-.242.188-.153.066-.364.066-.208 0-.364-.066-.156-.066-.242-.188-.087-.121-.087-.289 0-.176.095-.3.095-.127.263-.188v-.003q-.124-.055-.199-.164-.072-.113-.072-.263 0-.156.075-.265.075-.113.211-.173.138-.061.32-.061zm0 .216q-.167 0-.268.081-.098.081-.098.225 0 .141.101.222.101.081.265.081.164 0 .265-.081.101-.081.101-.222 0-.144-.098-.225-.098-.081-.268-.081zm0 1.526q.141 0 .242-.04.101-.043.156-.121.055-.081.055-.188 0-.11-.058-.188-.055-.081-.156-.121-.101-.043-.239-.043-.136 0-.239.043-.101.04-.159.121-.055.078-.055.188 0 .107.055.188.055.078.156.121.104.04.242.04z"/><path id="Y" d="M167.048 64.99q-.254 0-.41-.115-.153-.115-.237-.32l.225-.118q.046.15.141.245.098.092.286.092.133 0 .225-.049.095-.049.147-.139.052-.092.052-.219 0-.136-.049-.225-.046-.092-.136-.139-.089-.046-.219-.046-.092 0-.173.02-.078.017-.141.058-.064.04-.11.107l-.202-.038.113-1.047h1.071v.216h-.874l-.075.6-.006.026h.006q.069-.072.176-.115.11-.043.26-.043.182 0 .315.078.136.075.211.214.075.139.075.323 0 .147-.049.265-.049.118-.139.202-.089.081-.214.124-.121.043-.268.043z"/><path id="Z" d="M218.925 61.029q.146 0 .237.091.091.091.091.237 0 .146-.091.237-.091.091-.237.091-.146 0-.237-.091-.091-.091-.091-.237 0-.146.091-.237.091-.091.237-.091z"/><path id="a" d="M216.353 64.201v1.904h-.286l-.796-1.275-.202-.358h-.003l.012.289v1.345h-.219v-1.904h.286l.793 1.27.205.366h.003l-.012-.291v-1.345z"/><path id="b" d="M246.336 66.134q-.254 0-.45-.118-.193-.121-.263-.332l.231-.118q.035.107.095.188.061.078.159.121.101.043.251.043.127 0 .214-.046.087-.046.133-.124.046-.081.046-.185 0-.104-.04-.173-.037-.069-.121-.101-.084-.035-.219-.035-.032 0-.069.003-.037 0-.078.006v-.231q.026.003.049.003.026 0 .046 0 .211 0 .3-.081.089-.084.089-.26 0-.15-.092-.228-.092-.078-.263-.078-.182 0-.277.081-.095.078-.15.214l-.219-.104q.046-.121.139-.214.092-.092.222-.144.133-.052.291-.052.199 0 .329.069.13.066.193.179.066.113.066.248 0 .104-.029.188-.029.081-.081.141-.049.061-.113.098-.064.035-.136.046v.006q.095.003.167.038.075.035.127.092.052.058.078.133.029.072.029.153 0 .167-.084.297-.081.13-.228.205-.147.072-.343.072z"/><path id="c" d="M247.668 66.105v-.188q.286-.211.476-.369.193-.159.309-.289.115-.13.164-.245.049-.118.049-.245 0-.17-.11-.274-.107-.107-.294-.107-.196 0-.315.13-.118.127-.139.34l-.202-.121q.026-.167.107-.294.084-.127.222-.199.141-.072.335-.072.147 0 .263.043.118.043.202.124.084.078.127.188.046.11.046.242 0 .179-.087.352-.087.17-.286.358-.199.188-.54.416v.003q.032-.003.087-.003.058-.003.113-.003.058-.003.087-.003h.667v.216z"/><path id="d" d="M17.839 108.994q.375 0 .642.128.267.123.41.361.148.232.148.563 0 .331-.148.568-.143.232-.41.361-.267.123-.642.123h-.687v1.156h-.682v-3.26zm-.104 1.566q.306 0 .459-.128.153-.133.153-.385 0-.257-.153-.385-.153-.128-.459-.128h-.583v1.027z"/><path id="e" d="M19.661 112.254v-3.26h2.445v.548h-1.763v.81h1.388v.524h-1.388v.83h1.832v.548z"/><path id="f" d="M25.588 108.994v3.26h-.78l-1.141-1.916-.282-.533h-.005l.02.563v1.887h-.612v-3.26h.775l1.141 1.911.282.538h.01l-.02-.563v-1.887z"/><path id="g" d="M29.055 108.994l-1.156 2.04v1.22h-.682v-1.22l-1.156-2.04h.726l.524.973.247.514.252-.514.524-.973z"/><path id="h" d="M32.25 108.994v1.976q0 .667-.356 1.003-.356.331-1.037.331-.682 0-1.037-.331-.356-.336-.356-1.003v-1.976h.682v1.946q0 .41.173.607.178.198.538.198.361 0 .533-.198.173-.198.173-.607v-1.946z"/><path id="i" d="M46.203 112.254h-.706l-.272-.795h-1.25l-.272.795h-.696l1.19-3.26h.815zm-2.074-1.299h.943l-.474-1.422z"/><path id="j" d="M51.848 112.254v-3.26h1.427q.593 0 .874.232.282.232.282.657 0 .262-.158.464-.158.203-.464.257v.005q.341.049.524.257.183.207.183.494 0 .42-.306.657-.301.237-.884.237zm.662-.514h.756q.277 0 .41-.114.133-.114.133-.316 0-.207-.133-.316-.133-.109-.41-.109h-.756zm0-1.378h.677q.538 0 .538-.42 0-.42-.538-.42h-.677z"/><path id="k" d="M61.251 108.994v3.26h-.682v-3.26zm-2.119 0v3.26h-.682v-3.26zm1.793 1.338v.548h-2.134v-.548z"/><path id="l" d="M18.972 115.423l-1.492 1.694-.054-.054-.815.924-.104-.632 1.674-1.931zm-2.129 0v3.26h-.682v-3.26zm.825 1.126l1.343 2.134h-.78l-1.087-1.753z"/><path id="m" d="M33.053 115.423v3.26h-.612v-1.699l.03-.953h-.01l-.904 2.652h-.558l-.899-2.652h-.01l.035.953v1.699h-.617v-3.26h.988l.588 1.778.207.736h.01l.212-.731.583-1.783z"/><path id="n" d="M53.292 118.732q-.449 0-.79-.198-.336-.198-.524-.573-.188-.375-.188-.904 0-.524.198-.899.198-.38.558-.583.361-.202.845-.202.528 0 .854.198.326.193.519.603l-.632.272q-.079-.262-.272-.385-.188-.128-.464-.128-.277 0-.479.133-.202.128-.311.38-.109.247-.109.607 0 .37.104.627.104.252.306.38.207.123.509.123.163 0 .301-.04.143-.04.247-.119.104-.079.163-.202.059-.123.059-.286v-.074h-.854v-.499h1.442v1.719h-.479l-.049-.711.119.084q-.109.326-.385.504-.272.173-.687.173z"/><path id="o" d="M20.449 129.277v-3.335h2.127v.379h-1.76v1.076h1.369v.379h-1.369v1.122h1.829v.379z"/><path id="p" d="M27.106 125.942q.712 0 1.116.435.409.429.409 1.233 0 .803-.409 1.238-.404.429-1.116.429h-.979v-3.335zm.037 2.956q.519 0 .809-.339.294-.344.294-.95 0-.606-.294-.945-.289-.344-.809-.344h-.648v2.577z"/><path id="q" d="M34.613 125.891q.4 0 .689.182.289.177.482.525l-.308.263q-.17-.323-.386-.455-.211-.136-.515-.136-.244 0-.404.076-.156.076-.23.202-.074.121-.074.278 0 .177.101.313.101.131.404.207l.657.162q.436.106.606.323.175.212.175.531 0 .283-.147.505-.142.217-.404.339-.262.121-.616.121-.331 0-.583-.096-.248-.101-.427-.268-.179-.167-.294-.374l.322-.288q.087.192.225.339.138.147.331.227.198.081.45.081.234 0 .404-.061.175-.066.266-.187.092-.126.092-.303 0-.162-.096-.288-.096-.131-.363-.197l-.712-.177q-.28-.071-.455-.192-.17-.126-.248-.293-.074-.172-.074-.369 0-.268.133-.49.138-.227.391-.364.257-.136.606-.136z"/><path id="r" d="M20.802 133.749v-1.397q0-.049 0-.104.003-.058.005-.118-.089.095-.207.167-.118.069-.242.101l-.055-.211q.047-.005.118-.038.074-.035.152-.084.081-.052.15-.11.068-.058.105-.113h.184v1.906z"/><path id="s" d="M27.352 133.778q-.294 0-.47-.251-.176-.251-.176-.731 0-.479.176-.73.176-.251.47-.251.297 0 .47.251.176.251.176.73 0 .479-.176.731-.173.251-.47.251zm0-.208q.139 0 .234-.087.097-.09.144-.263.05-.173.05-.424 0-.251-.05-.424-.047-.173-.144-.26-.095-.09-.234-.09-.139 0-.236.09-.095.087-.144.26-.047.173-.047.424 0 .251.047.424.05.173.144.263.097.087.236.087z"/><path id="t" d="M31.023 133.778q-.231 0-.41-.118-.176-.121-.239-.332l.21-.118q.032.107.087.188.055.078.144.121.092.043.228.043.116 0 .194-.046.079-.046.121-.124.042-.081.042-.185 0-.104-.037-.173-.034-.069-.11-.101-.076-.035-.2-.035-.029 0-.063.003-.034 0-.071.006v-.231q.024.003.045.003.024 0 .042 0 .192 0 .273-.081.081-.084.081-.26 0-.15-.084-.228-.084-.078-.239-.078-.165 0-.252.081-.087.078-.137.214l-.2-.104q.042-.121.126-.214.084-.092.202-.144.121-.052.265-.052.181 0 .299.069.118.066.176.179.06.113.06.248 0 .104-.026.188-.026.081-.074.141-.045.061-.102.098-.058.035-.123.046v.005q.087.003.152.038.068.035.116.092.047.058.071.133.026.072.026.153 0 .167-.076.297-.074.13-.207.205-.134.072-.312.072z"/><path id="u" d="M34.117 133.749v-.188q.26-.211.433-.37.176-.159.281-.289.105-.13.15-.245.045-.118.045-.245 0-.17-.1-.274-.097-.107-.268-.107-.179 0-.286.13-.108.127-.126.341l-.184-.121q.024-.167.097-.295.076-.127.202-.199.129-.072.305-.072.134 0 .239.043.108.043.184.124.076.078.116.188.042.11.042.243 0 .179-.079.352-.079.17-.26.358-.181.188-.491.416v.003q.029-.003.079-.003.053-.003.102-.003.053-.003.079-.003h.606v.217z"/><path id="v" d="M17.545 139.064v3.335h-.368v-3.335zm-2.012 0v3.335h-.368v-3.335zm1.815 1.455v.379h-1.989v-.379z"/><path id="w" d="M20.954 142.399h-.391l-.322-.925h-1.374l-.322.925h-.386l1.181-3.335h.436zm-1.953-1.304h1.107l-.556-1.642z"/><path id="x" d="M22.718 139.064q.464 0 .744.263.28.263.28.712 0 .45-.285.702-.28.248-.744.248l-.032.025h-.744v1.384h-.368v-3.335zm-.005 1.571q.326 0 .482-.147.161-.152.161-.45 0-.298-.161-.445-.156-.152-.482-.152h-.776v1.192zm.211.081l1.002 1.683h-.436l-.873-1.46z"/><path id="y" d="M27.005 139.064v3.335h-.455l-1.268-2.233-.322-.627h-.005l.018.505v2.355h-.349v-3.335h.455l1.263 2.223.326.642h.005l-.018-.51v-2.355z"/><path id="z" d="M38.601 139.013q.4 0 .689.182.289.177.482.526l-.308.263q-.17-.323-.386-.455-.211-.136-.515-.136-.244 0-.404.076-.156.076-.23.202-.074.121-.074.278 0 .177.101.313.101.131.404.207l.657.162q.436.106.606.323.175.212.175.531 0 .283-.147.505-.142.217-.404.339-.262.121-.616.121-.331 0-.583-.096-.248-.101-.427-.268-.179-.167-.294-.374l.322-.288q.087.192.225.339.138.147.331.227.198.081.45.081.234 0 .404-.061.175-.066.266-.187.092-.126.092-.303 0-.162-.096-.288-.096-.131-.363-.197l-.712-.177q-.28-.071-.455-.192-.17-.126-.248-.293-.074-.172-.074-.369 0-.268.133-.49.138-.227.391-.364.257-.136.606-.136z"/><path id="AA" d="M170.609 109.481q.484 0 .835.202.351.203.538.578.193.375.193.899 0 .524-.193.899-.188.375-.538.578-.351.202-.835.202-.484 0-.84-.202-.351-.203-.543-.578-.188-.375-.188-.899 0-.524.188-.899.193-.375.543-.578.356-.202.84-.202zm0 .558q-.272 0-.469.128-.193.128-.296.38-.099.252-.099.612 0 .361.099.612.104.252.296.38.198.128.469.128.272 0 .464-.128.193-.128.291-.38.104-.252.104-.612 0-.361-.104-.612-.099-.252-.291-.38-.193-.128-.464-.128z"/><path id="AB" d="M185.88 115.91q.445 0 .78.153.336.153.573.454l-.38.44q-.202-.257-.445-.375-.237-.123-.553-.123-.207 0-.346.054-.133.054-.198.143-.059.089-.059.198 0 .133.104.227.104.089.356.148l.607.138q.484.109.691.326.212.212.212.553 0 .321-.168.553-.168.227-.469.351-.301.119-.691.119-.341 0-.627-.079-.282-.084-.504-.227-.222-.143-.37-.331l.385-.459q.114.158.282.282.168.123.38.198.217.069.454.069.202 0 .341-.044.143-.049.212-.133.074-.089.074-.212 0-.128-.089-.217-.084-.094-.316-.143l-.662-.148q-.286-.069-.494-.178-.202-.114-.311-.286-.104-.178-.104-.42 0-.291.158-.524.158-.232.454-.365.301-.138.721-.138z"/><path id="AC" d="M190.31 122.388q.375 0 .642.128.267.123.41.361.148.232.148.563 0 .331-.148.568-.143.232-.41.361-.267.123-.642.123h-.686v1.156h-.682v-3.26zm-.104 1.566q.306 0 .459-.128.153-.133.153-.385 0-.257-.153-.385-.153-.128-.459-.128h-.583v1.027z"/><path id="AD" d="M96.002 125.971v2.092q0 .642-.308.97-.308.323-.882.323-.57 0-.882-.323-.308-.328-.308-.97v-2.092h.368v1.991q0 .52.198.768.202.248.625.248.423 0 .62-.248.202-.248.202-.768v-1.991z"/><path id="AE" d="M122.365 134.625v3.335h-.349v-2.097l.041-.879h-.005l-.997 2.976h-.312l-.997-2.976h-.005l.041.879v2.097h-.349v-3.335h.565l.666 2.026.23.834h.01l.234-.829.662-2.031z"/><path id="AF" d="M250.694 109.3v3.26h-.78l-1.141-1.916-.282-.533h-.005l.02.563v1.887h-.612v-3.26h.775l1.141 1.911.282.538h.01l-.02-.563V109.3z"/></defs></svg>